<?xml version="1.0" encoding="utf-8"?>
<!-- Generator: Adobe Illustrator 16.0.0, SVG Export Plug-In . SVG Version: 6.00 Build 0)  -->
<!DOCTYPE svg PUBLIC "-//W3C//DTD SVG 1.1//EN" "http://www.w3.org/Graphics/SVG/1.1/DTD/svg11.dtd">
<svg version="1.1" id="Layer_1" xmlns="http://www.w3.org/2000/svg" xmlns:xlink="http://www.w3.org/1999/xlink" x="0px" y="0px"
	 width="100px" height="100px" viewBox="0 0 100 100" enable-background="new 0 0 100 100" xml:space="preserve">
<path d="M67.333,17.035H32.667c-5.238,0-9.5,4.262-9.5,9.5v51.999c0,5.238,4.262,9.5,9.5,9.5h34.666c5.238,0,9.5-4.262,9.5-9.5
	V26.535C76.833,21.296,72.571,17.035,67.333,17.035z M73.833,78.534c0,3.584-2.916,6.5-6.5,6.5H32.667c-3.584,0-6.5-2.916-6.5-6.5
	V26.535c0-3.584,2.916-6.5,6.5-6.5h34.666c3.584,0,6.5,2.916,6.5,6.5V78.534z"/>
<path d="M66.667,25.034H33.333c-0.829,0-1.5,0.671-1.5,1.5v10.903c0,0.829,0.671,1.5,1.5,1.5h33.334c0.829,0,1.5-0.671,1.5-1.5
	V26.534C68.167,25.705,67.496,25.034,66.667,25.034z M65.167,35.937H34.833v-7.903h30.334V35.937z"/>
<path d="M50,43.702c-3.033,0-5.5,2.467-5.5,5.5s2.467,5.5,5.5,5.5s5.5-2.467,5.5-5.5S53.033,43.702,50,43.702z M50,52.702
	c-1.93,0-3.5-1.57-3.5-3.5s1.57-3.5,3.5-3.5s3.5,1.57,3.5,3.5S51.93,52.702,50,52.702z"/>
<path d="M37.833,43.702c-3.033,0-5.5,2.467-5.5,5.5s2.467,5.5,5.5,5.5s5.5-2.467,5.5-5.5S40.866,43.702,37.833,43.702z
	 M37.833,52.702c-1.93,0-3.5-1.57-3.5-3.5s1.57-3.5,3.5-3.5s3.5,1.57,3.5,3.5S39.763,52.702,37.833,52.702z"/>
<path d="M62.167,43.702c-3.033,0-5.5,2.467-5.5,5.5s2.467,5.5,5.5,5.5s5.5-2.467,5.5-5.5S65.2,43.702,62.167,43.702z M62.167,52.702
	c-1.93,0-3.5-1.57-3.5-3.5s1.57-3.5,3.5-3.5s3.5,1.57,3.5,3.5S64.097,52.702,62.167,52.702z"/>
<path d="M50,55.702c-3.033,0-5.5,2.467-5.5,5.5s2.467,5.5,5.5,5.5s5.5-2.467,5.5-5.5S53.033,55.702,50,55.702z M50,64.702
	c-1.93,0-3.5-1.57-3.5-3.5s1.57-3.5,3.5-3.5s3.5,1.57,3.5,3.5S51.93,64.702,50,64.702z"/>
<path d="M37.833,55.702c-3.033,0-5.5,2.467-5.5,5.5s2.467,5.5,5.5,5.5s5.5-2.467,5.5-5.5S40.866,55.702,37.833,55.702z
	 M37.833,64.702c-1.93,0-3.5-1.57-3.5-3.5s1.57-3.5,3.5-3.5s3.5,1.57,3.5,3.5S39.763,64.702,37.833,64.702z"/>
<path d="M62.167,55.702c-3.033,0-5.5,2.467-5.5,5.5s2.467,5.5,5.5,5.5s5.5-2.467,5.5-5.5S65.2,55.702,62.167,55.702z M62.167,64.702
	c-1.93,0-3.5-1.57-3.5-3.5s1.57-3.5,3.5-3.5s3.5,1.57,3.5,3.5S64.097,64.702,62.167,64.702z"/>
<path d="M50,67.702c-3.033,0-5.5,2.467-5.5,5.5s2.467,5.5,5.5,5.5s5.5-2.467,5.5-5.5S53.033,67.702,50,67.702z M50,76.702
	c-1.93,0-3.5-1.57-3.5-3.5s1.57-3.5,3.5-3.5s3.5,1.57,3.5,3.5S51.93,76.702,50,76.702z"/>
<path d="M37.833,67.702c-3.033,0-5.5,2.467-5.5,5.5s2.467,5.5,5.5,5.5s5.5-2.467,5.5-5.5S40.866,67.702,37.833,67.702z
	 M37.833,76.702c-1.93,0-3.5-1.57-3.5-3.5s1.57-3.5,3.5-3.5s3.5,1.57,3.5,3.5S39.763,76.702,37.833,76.702z"/>
<path d="M62.167,67.702c-3.033,0-5.5,2.467-5.5,5.5s2.467,5.5,5.5,5.5s5.5-2.467,5.5-5.5S65.2,67.702,62.167,67.702z M62.167,76.702
	c-1.93,0-3.5-1.57-3.5-3.5s1.57-3.5,3.5-3.5s3.5,1.57,3.5,3.5S64.097,76.702,62.167,76.702z"/>
</svg>
