<?xml version="1.0" encoding="iso-8859-1"?>
<!-- Generator: Adobe Illustrator 17.1.0, SVG Export Plug-In . SVG Version: 6.00 Build 0)  -->
<!DOCTYPE svg PUBLIC "-//W3C//DTD SVG 1.1//EN" "http://www.w3.org/Graphics/SVG/1.1/DTD/svg11.dtd">
<svg version="1.1" id="Capa_1" xmlns="http://www.w3.org/2000/svg" xmlns:xlink="http://www.w3.org/1999/xlink" x="0px" y="0px"
	 viewBox="0 0 64 64" style="enable-background:new 0 0 64 64;" xml:space="preserve">
<path d="M11.523,19.015l15.147,37.726c0.652,1.625,2.496,2.414,4.121,1.76l19.777-7.94c1.625-0.652,2.413-2.498,1.761-4.122
	L37.181,8.712c-0.652-1.625-2.498-2.413-4.123-1.761l-19.777,7.941C11.657,15.545,10.871,17.39,11.523,19.015z M39.91,52.755
	c-1.024,0.412-2.186-0.083-2.597-1.107c-0.41-1.022,0.086-2.184,1.11-2.595c1.021-0.41,2.184,0.085,2.594,1.108
	C41.427,51.185,40.931,52.345,39.91,52.755z M17.068,19.008l16.101-6.464c0.447-0.18,0.955,0.036,1.136,0.484l11.661,29.043
	c0.18,0.447-0.038,0.956-0.485,1.135l-16.1,6.464c-0.448,0.179-0.956-0.038-1.135-0.485l-11.66-29.043
	C16.405,19.695,16.621,19.187,17.068,19.008z"/>
<path d="M15.328,11.75c-0.011-0.106-0.034-0.208-0.074-0.307c-0.18-0.447-0.642-0.726-1.123-0.681
	c-4.664,0.454-8.092,4.614-7.64,9.281c0.057,0.586,0.612,1.041,1.199,0.985C7.982,21,8.246,20.859,8.431,20.634
	c0.188-0.228,0.273-0.514,0.244-0.804c-0.162-1.671,0.338-3.313,1.408-4.613c1.073-1.303,2.584-2.11,4.257-2.27
	C14.941,12.889,15.384,12.353,15.328,11.75z"/>
<path d="M13.695,8.639c0.6-0.059,1.043-0.595,0.984-1.196c-0.009-0.105-0.033-0.207-0.073-0.305
	c-0.179-0.448-0.64-0.727-1.123-0.681c-3.371,0.327-6.414,1.949-8.572,4.572c-2.156,2.622-3.167,5.921-2.838,9.295
	c0.061,0.584,0.614,1.038,1.195,0.983c0.292-0.028,0.556-0.167,0.741-0.393c0.187-0.227,0.275-0.511,0.246-0.804
	C3.697,14.344,7.93,9.199,13.695,8.639z"/>
<path d="M49.089,54.151c0.025,0.104,0.064,0.201,0.118,0.293c0.242,0.416,0.74,0.625,1.21,0.511
	c4.55-1.122,7.342-5.733,6.221-10.286c-0.141-0.571-0.755-0.941-1.329-0.801c-0.284,0.07-0.525,0.248-0.676,0.497
	c-0.153,0.253-0.195,0.548-0.126,0.832c0.401,1.63,0.145,3.326-0.729,4.768c-0.873,1.443-2.253,2.46-3.884,2.86
	C49.307,52.969,48.947,53.564,49.089,54.151z"/>
<path d="M59.646,42.956c-0.285,0.07-0.524,0.246-0.679,0.496c-0.151,0.252-0.198,0.546-0.128,0.832
	c1.387,5.624-2.062,11.325-7.685,12.709c-0.586,0.146-0.946,0.74-0.803,1.328c0.023,0.103,0.062,0.199,0.115,0.291
	c0.243,0.416,0.741,0.626,1.212,0.511c3.287-0.81,6.065-2.854,7.823-5.76c1.756-2.905,2.279-6.315,1.468-9.607
	C60.826,43.188,60.213,42.818,59.646,42.956z"/>
</svg>
